<mxfile host="app.diagrams.net" modified="2022-03-07T14:33:31.443Z" agent="5.0 (Windows)" etag="WfZKXV99V-5KLpNzet4S" version="16.6.6" type="github">
  <diagram id="y8m480E8AWF9mSjOlCLx" name="Page-1">
    <mxGraphModel dx="723" dy="390" grid="1" gridSize="10" guides="1" tooltips="1" connect="1" arrows="1" fold="1" page="1" pageScale="1" pageWidth="850" pageHeight="1100" math="0" shadow="0">
      <root>
        <mxCell id="0" />
        <mxCell id="1" parent="0" />
        <mxCell id="EQCuyr0gUEPZYGNhDmS0-42" value="" style="shape=parallelogram;perimeter=parallelogramPerimeter;whiteSpace=wrap;html=1;fixedSize=1;fontSize=14;strokeWidth=2;fillColor=none;" vertex="1" parent="1">
          <mxGeometry x="277.5" y="895" width="165" height="60" as="geometry" />
        </mxCell>
        <mxCell id="EQCuyr0gUEPZYGNhDmS0-22" value="" style="shape=process;whiteSpace=wrap;html=1;backgroundOutline=1;fontSize=14;strokeWidth=2;fillColor=none;" vertex="1" parent="1">
          <mxGeometry x="51" y="920" width="190" height="80" as="geometry" />
        </mxCell>
        <mxCell id="EQCuyr0gUEPZYGNhDmS0-20" value="" style="strokeWidth=2;html=1;shape=mxgraph.flowchart.decision;whiteSpace=wrap;fontSize=14;fillColor=none;" vertex="1" parent="1">
          <mxGeometry x="276.25" y="702.5" width="167.5" height="167.5" as="geometry" />
        </mxCell>
        <mxCell id="EQCuyr0gUEPZYGNhDmS0-1" value="&lt;h1&gt;Algorithm of Science or Social Major Arrangement&lt;br&gt;&lt;/h1&gt;&lt;p&gt;The average score of the student&#39;s exact test and non-exact test gives contribution to the result of a student is being accepted to science or social major.&lt;br&gt;&lt;/p&gt;&lt;p&gt;Penjurusan IPA atau IPS dengan acuan nilai rata-rata pada tes eksakta dan/atau tes non-eksakta. Setiap hasil dari nilai rata-rata cukup berpengaruh untuk menentukan pilihan penjurusan.&lt;/p&gt;&lt;p&gt;By: Andika Fadila Pratama D4-JTD 1A/04&lt;/p&gt;&lt;p&gt;Polinema-Computer Programming Practicum&lt;/p&gt;&lt;p&gt;2022/03/07&lt;br&gt;&lt;/p&gt;" style="text;html=1;strokeColor=none;fillColor=#A9C4EB;spacing=5;spacingTop=-20;whiteSpace=wrap;overflow=hidden;rounded=0;" vertex="1" parent="1">
          <mxGeometry x="40" y="40" width="360" height="260" as="geometry" />
        </mxCell>
        <mxCell id="EQCuyr0gUEPZYGNhDmS0-2" value="&lt;div align=&quot;left&quot;&gt;&lt;font size=&quot;1&quot;&gt;&lt;b style=&quot;font-size: 14px&quot;&gt;Algorithm of Science or Social Major Arrangement&lt;/b&gt;&lt;/font&gt;&lt;/div&gt;&lt;div align=&quot;left&quot;&gt;&lt;b&gt;&lt;br&gt;&lt;/b&gt;&lt;/div&gt;&lt;div align=&quot;left&quot;&gt;The three exact tests and two non-exact tests have important role to decide a student is suitable to get science or social major.&lt;br&gt;&lt;/div&gt;" style="text;html=1;strokeColor=none;fillColor=none;align=left;verticalAlign=middle;whiteSpace=wrap;rounded=0;" vertex="1" parent="1">
          <mxGeometry x="40" y="320" width="360" height="70" as="geometry" />
        </mxCell>
        <mxCell id="EQCuyr0gUEPZYGNhDmS0-3" value="&lt;div style=&quot;font-size: 12px&quot; align=&quot;left&quot;&gt;&lt;font size=&quot;1&quot;&gt;&lt;b&gt;&lt;font style=&quot;font-size: 14px&quot;&gt;The Algorithm&lt;/font&gt;&lt;/b&gt;&lt;/font&gt;&lt;/div&gt;&lt;div style=&quot;font-size: 12px&quot; align=&quot;left&quot;&gt;&lt;font style=&quot;font-size: 12px&quot;&gt;&lt;br&gt;&lt;/font&gt;&lt;/div&gt;&lt;div style=&quot;font-size: 12px&quot; align=&quot;left&quot;&gt;&lt;font style=&quot;font-size: 12px&quot;&gt;1. Input the exact tests and non-exact tests,&lt;/font&gt;&lt;/div&gt;&lt;div style=&quot;font-size: 12px&quot; align=&quot;left&quot;&gt;&lt;font style=&quot;font-size: 12px&quot;&gt;2. Count the average score of both tests,&lt;/font&gt;&lt;/div&gt;&lt;div style=&quot;font-size: 12px&quot; align=&quot;left&quot;&gt;&lt;font style=&quot;font-size: 12px&quot;&gt;3. Decide the major of a student by the average score,&lt;/font&gt;&lt;/div&gt;&lt;div style=&quot;font-size: 12px&quot; align=&quot;left&quot;&gt;&lt;font style=&quot;font-size: 12px&quot;&gt;&lt;span style=&quot;white-space: pre&quot;&gt;	&lt;/span&gt;a. The average score of exact test is higher than the average score of non-exact test, the student is directed to science major&lt;/font&gt;&lt;/div&gt;&lt;div style=&quot;font-size: 12px&quot; align=&quot;left&quot;&gt;&lt;font style=&quot;font-size: 12px&quot;&gt;&lt;span style=&quot;white-space: pre&quot;&gt;	&lt;/span&gt;b. The average score of non-exact test is higher, the student is directed to social major&lt;/font&gt;&lt;/div&gt;&lt;div style=&quot;font-size: 12px&quot; align=&quot;left&quot;&gt;&lt;font style=&quot;font-size: 12px&quot;&gt;&lt;span style=&quot;white-space: pre&quot;&gt;	&lt;/span&gt;c. Both tests have equal average score, the student is allowed to choose the major by her/himself&lt;br&gt;&lt;/font&gt;&lt;/div&gt;" style="text;html=1;strokeColor=none;fillColor=none;align=left;verticalAlign=middle;whiteSpace=wrap;rounded=0;fontSize=17;" vertex="1" parent="1">
          <mxGeometry x="40" y="400" width="430" height="170" as="geometry" />
        </mxCell>
        <mxCell id="EQCuyr0gUEPZYGNhDmS0-4" value="" style="strokeWidth=2;html=1;shape=mxgraph.flowchart.terminator;whiteSpace=wrap;fontSize=14;fillColor=none;" vertex="1" parent="1">
          <mxGeometry x="96" y="600" width="100" height="60" as="geometry" />
        </mxCell>
        <mxCell id="EQCuyr0gUEPZYGNhDmS0-5" value="Start" style="text;html=1;strokeColor=none;fillColor=none;align=center;verticalAlign=middle;whiteSpace=wrap;rounded=0;fontSize=14;" vertex="1" parent="1">
          <mxGeometry x="116" y="615" width="60" height="30" as="geometry" />
        </mxCell>
        <mxCell id="EQCuyr0gUEPZYGNhDmS0-8" value="" style="shape=parallelogram;perimeter=parallelogramPerimeter;whiteSpace=wrap;html=1;fixedSize=1;fontSize=14;fillColor=none;strokeWidth=2;" vertex="1" parent="1">
          <mxGeometry x="50" y="690" width="192" height="75" as="geometry" />
        </mxCell>
        <mxCell id="EQCuyr0gUEPZYGNhDmS0-9" value="" style="endArrow=classic;html=1;rounded=0;fontSize=14;exitX=0.5;exitY=1;exitDx=0;exitDy=0;exitPerimeter=0;entryX=0.5;entryY=0;entryDx=0;entryDy=0;" edge="1" parent="1" source="EQCuyr0gUEPZYGNhDmS0-4" target="EQCuyr0gUEPZYGNhDmS0-8">
          <mxGeometry width="50" height="50" relative="1" as="geometry">
            <mxPoint x="111" y="590" as="sourcePoint" />
            <mxPoint x="161" y="540" as="targetPoint" />
          </mxGeometry>
        </mxCell>
        <mxCell id="EQCuyr0gUEPZYGNhDmS0-10" value="input the score of three exact tests and two non-exact tests" style="text;html=1;strokeColor=none;fillColor=none;align=center;verticalAlign=middle;whiteSpace=wrap;rounded=0;fontSize=14;" vertex="1" parent="1">
          <mxGeometry x="71" y="702.5" width="150" height="50" as="geometry" />
        </mxCell>
        <mxCell id="EQCuyr0gUEPZYGNhDmS0-13" value="" style="endArrow=classic;html=1;rounded=0;fontSize=14;exitX=0.5;exitY=1;exitDx=0;exitDy=0;entryX=0.5;entryY=0;entryDx=0;entryDy=0;" edge="1" parent="1" source="EQCuyr0gUEPZYGNhDmS0-8" target="EQCuyr0gUEPZYGNhDmS0-15">
          <mxGeometry width="50" height="50" relative="1" as="geometry">
            <mxPoint x="111" y="650" as="sourcePoint" />
            <mxPoint x="251" y="790" as="targetPoint" />
          </mxGeometry>
        </mxCell>
        <mxCell id="EQCuyr0gUEPZYGNhDmS0-15" value="" style="rounded=1;whiteSpace=wrap;html=1;absoluteArcSize=1;arcSize=14;strokeWidth=2;fontSize=14;fillColor=none;" vertex="1" parent="1">
          <mxGeometry x="63" y="800" width="167" height="80" as="geometry" />
        </mxCell>
        <mxCell id="EQCuyr0gUEPZYGNhDmS0-16" value="What is the student major by the average score tendency?" style="text;html=1;strokeColor=none;fillColor=none;align=center;verticalAlign=middle;whiteSpace=wrap;rounded=0;fontSize=14;" vertex="1" parent="1">
          <mxGeometry x="71" y="935" width="150" height="50" as="geometry" />
        </mxCell>
        <mxCell id="EQCuyr0gUEPZYGNhDmS0-17" value="Count the average score of the exact tests and non-exact tests" style="text;html=1;strokeColor=none;fillColor=none;align=center;verticalAlign=middle;whiteSpace=wrap;rounded=0;fontSize=14;" vertex="1" parent="1">
          <mxGeometry x="71" y="825" width="150" height="30" as="geometry" />
        </mxCell>
        <mxCell id="EQCuyr0gUEPZYGNhDmS0-21" value="" style="endArrow=classic;html=1;rounded=0;fontSize=14;exitX=0.5;exitY=1;exitDx=0;exitDy=0;entryX=0.5;entryY=0;entryDx=0;entryDy=0;" edge="1" parent="1" source="EQCuyr0gUEPZYGNhDmS0-15" target="EQCuyr0gUEPZYGNhDmS0-22">
          <mxGeometry width="50" height="50" relative="1" as="geometry">
            <mxPoint x="111" y="900" as="sourcePoint" />
            <mxPoint x="171" y="900" as="targetPoint" />
          </mxGeometry>
        </mxCell>
        <mxCell id="EQCuyr0gUEPZYGNhDmS0-24" value="The average score of exact tests is higher than non-exact tests?" style="text;html=1;strokeColor=none;fillColor=none;align=center;verticalAlign=middle;whiteSpace=wrap;rounded=0;fontSize=14;" vertex="1" parent="1">
          <mxGeometry x="300" y="765" width="120" height="50" as="geometry" />
        </mxCell>
        <mxCell id="EQCuyr0gUEPZYGNhDmS0-25" value="" style="endArrow=classic;html=1;rounded=0;fontSize=14;exitX=0.5;exitY=1;exitDx=0;exitDy=0;exitPerimeter=0;entryX=0.5;entryY=0;entryDx=0;entryDy=0;" edge="1" parent="1" source="EQCuyr0gUEPZYGNhDmS0-20" target="EQCuyr0gUEPZYGNhDmS0-42">
          <mxGeometry width="50" height="50" relative="1" as="geometry">
            <mxPoint x="325" y="780" as="sourcePoint" />
            <mxPoint x="360.4999999999998" y="890" as="targetPoint" />
          </mxGeometry>
        </mxCell>
        <mxCell id="EQCuyr0gUEPZYGNhDmS0-27" value="Output directed to science major" style="text;html=1;strokeColor=none;fillColor=none;align=center;verticalAlign=middle;whiteSpace=wrap;rounded=0;fontSize=14;" vertex="1" parent="1">
          <mxGeometry x="305.5" y="910" width="110" height="30" as="geometry" />
        </mxCell>
        <mxCell id="EQCuyr0gUEPZYGNhDmS0-28" value="Yes" style="text;html=1;strokeColor=none;fillColor=none;align=center;verticalAlign=middle;whiteSpace=wrap;rounded=0;fontSize=14;" vertex="1" parent="1">
          <mxGeometry x="355.5" y="865" width="35" height="30" as="geometry" />
        </mxCell>
        <mxCell id="EQCuyr0gUEPZYGNhDmS0-29" value="" style="ellipse;whiteSpace=wrap;html=1;aspect=fixed;fontSize=14;strokeWidth=2;fillColor=none;" vertex="1" parent="1">
          <mxGeometry x="126.5" y="1030" width="40" height="40" as="geometry" />
        </mxCell>
        <mxCell id="EQCuyr0gUEPZYGNhDmS0-30" value="" style="endArrow=classic;html=1;rounded=0;fontSize=14;exitX=0.5;exitY=1;exitDx=0;exitDy=0;entryX=0.5;entryY=0;entryDx=0;entryDy=0;" edge="1" parent="1" source="EQCuyr0gUEPZYGNhDmS0-22" target="EQCuyr0gUEPZYGNhDmS0-29">
          <mxGeometry width="50" height="50" relative="1" as="geometry">
            <mxPoint x="290" y="900" as="sourcePoint" />
            <mxPoint x="340" y="850" as="targetPoint" />
          </mxGeometry>
        </mxCell>
        <mxCell id="EQCuyr0gUEPZYGNhDmS0-31" value="" style="ellipse;whiteSpace=wrap;html=1;aspect=fixed;fontSize=14;strokeWidth=2;fillColor=none;" vertex="1" parent="1">
          <mxGeometry x="340" y="650" width="40" height="40" as="geometry" />
        </mxCell>
        <mxCell id="EQCuyr0gUEPZYGNhDmS0-32" value="" style="endArrow=classic;html=1;rounded=0;fontSize=14;exitX=0.5;exitY=1;exitDx=0;exitDy=0;entryX=0.5;entryY=0;entryDx=0;entryDy=0;entryPerimeter=0;" edge="1" parent="1" source="EQCuyr0gUEPZYGNhDmS0-31" target="EQCuyr0gUEPZYGNhDmS0-20">
          <mxGeometry width="50" height="50" relative="1" as="geometry">
            <mxPoint x="290" y="830" as="sourcePoint" />
            <mxPoint x="310" y="710" as="targetPoint" />
          </mxGeometry>
        </mxCell>
        <mxCell id="EQCuyr0gUEPZYGNhDmS0-33" value="" style="strokeWidth=2;html=1;shape=mxgraph.flowchart.terminator;whiteSpace=wrap;fontSize=14;fillColor=none;" vertex="1" parent="1">
          <mxGeometry x="310.5" y="1000" width="100" height="60" as="geometry" />
        </mxCell>
        <mxCell id="EQCuyr0gUEPZYGNhDmS0-34" value="End" style="text;html=1;strokeColor=none;fillColor=none;align=center;verticalAlign=middle;whiteSpace=wrap;rounded=0;fontSize=14;" vertex="1" parent="1">
          <mxGeometry x="330.5" y="1015" width="60" height="30" as="geometry" />
        </mxCell>
        <mxCell id="EQCuyr0gUEPZYGNhDmS0-35" value="" style="endArrow=classic;html=1;rounded=0;fontSize=14;exitX=0.5;exitY=1;exitDx=0;exitDy=0;entryX=0.5;entryY=0;entryDx=0;entryDy=0;entryPerimeter=0;startArrow=none;" edge="1" parent="1" source="EQCuyr0gUEPZYGNhDmS0-42" target="EQCuyr0gUEPZYGNhDmS0-33">
          <mxGeometry width="50" height="50" relative="1" as="geometry">
            <mxPoint x="360.4999999999998" y="960" as="sourcePoint" />
            <mxPoint x="340" y="820" as="targetPoint" />
          </mxGeometry>
        </mxCell>
        <mxCell id="EQCuyr0gUEPZYGNhDmS0-36" value="" style="endArrow=classic;html=1;rounded=0;fontSize=14;exitX=1;exitY=0.5;exitDx=0;exitDy=0;exitPerimeter=0;entryX=0;entryY=0.5;entryDx=0;entryDy=0;entryPerimeter=0;" edge="1" parent="1" source="EQCuyr0gUEPZYGNhDmS0-20" target="EQCuyr0gUEPZYGNhDmS0-37">
          <mxGeometry width="50" height="50" relative="1" as="geometry">
            <mxPoint x="580" y="870" as="sourcePoint" />
            <mxPoint x="440" y="700" as="targetPoint" />
          </mxGeometry>
        </mxCell>
        <mxCell id="EQCuyr0gUEPZYGNhDmS0-37" value="" style="strokeWidth=2;html=1;shape=mxgraph.flowchart.decision;whiteSpace=wrap;fontSize=14;fillColor=none;" vertex="1" parent="1">
          <mxGeometry x="480" y="705.63" width="170" height="161.25" as="geometry" />
        </mxCell>
        <mxCell id="EQCuyr0gUEPZYGNhDmS0-39" value="The average score of exact tests is lower than non-exact tests?" style="text;html=1;strokeColor=none;fillColor=none;align=center;verticalAlign=middle;whiteSpace=wrap;rounded=0;fontSize=14;" vertex="1" parent="1">
          <mxGeometry x="510" y="747.5" width="110" height="85" as="geometry" />
        </mxCell>
        <mxCell id="EQCuyr0gUEPZYGNhDmS0-46" value="" style="shape=parallelogram;perimeter=parallelogramPerimeter;whiteSpace=wrap;html=1;fixedSize=1;fontSize=14;strokeWidth=2;fillColor=none;" vertex="1" parent="1">
          <mxGeometry x="482.5" y="895" width="165" height="60" as="geometry" />
        </mxCell>
        <mxCell id="EQCuyr0gUEPZYGNhDmS0-47" value="Output directed to social major" style="text;html=1;strokeColor=none;fillColor=none;align=center;verticalAlign=middle;whiteSpace=wrap;rounded=0;fontSize=14;" vertex="1" parent="1">
          <mxGeometry x="510" y="910" width="110" height="30" as="geometry" />
        </mxCell>
        <mxCell id="EQCuyr0gUEPZYGNhDmS0-48" value="" style="endArrow=classic;html=1;rounded=0;fontSize=14;exitX=0.5;exitY=1;exitDx=0;exitDy=0;entryX=1;entryY=0.5;entryDx=0;entryDy=0;entryPerimeter=0;" edge="1" parent="1" source="EQCuyr0gUEPZYGNhDmS0-46" target="EQCuyr0gUEPZYGNhDmS0-33">
          <mxGeometry width="50" height="50" relative="1" as="geometry">
            <mxPoint x="390" y="900" as="sourcePoint" />
            <mxPoint x="440" y="850" as="targetPoint" />
            <Array as="points">
              <mxPoint x="565" y="1030" />
            </Array>
          </mxGeometry>
        </mxCell>
        <mxCell id="EQCuyr0gUEPZYGNhDmS0-49" value="" style="strokeWidth=2;html=1;shape=mxgraph.flowchart.decision;whiteSpace=wrap;fontSize=14;fillColor=none;" vertex="1" parent="1">
          <mxGeometry x="670" y="705.62" width="170" height="161.25" as="geometry" />
        </mxCell>
        <mxCell id="EQCuyr0gUEPZYGNhDmS0-50" value="The average score of exact tests is the same as non-exact tests?" style="text;html=1;strokeColor=none;fillColor=none;align=center;verticalAlign=middle;whiteSpace=wrap;rounded=0;fontSize=14;" vertex="1" parent="1">
          <mxGeometry x="700" y="747.5" width="110" height="85" as="geometry" />
        </mxCell>
        <mxCell id="EQCuyr0gUEPZYGNhDmS0-51" value="" style="endArrow=classic;html=1;rounded=0;fontSize=14;exitX=1;exitY=0.5;exitDx=0;exitDy=0;exitPerimeter=0;entryX=0;entryY=0.5;entryDx=0;entryDy=0;entryPerimeter=0;" edge="1" parent="1" source="EQCuyr0gUEPZYGNhDmS0-37" target="EQCuyr0gUEPZYGNhDmS0-49">
          <mxGeometry width="50" height="50" relative="1" as="geometry">
            <mxPoint x="580" y="900" as="sourcePoint" />
            <mxPoint x="630" y="850" as="targetPoint" />
          </mxGeometry>
        </mxCell>
        <mxCell id="EQCuyr0gUEPZYGNhDmS0-52" value="No" style="text;html=1;strokeColor=none;fillColor=none;align=center;verticalAlign=middle;whiteSpace=wrap;rounded=0;fontSize=14;" vertex="1" parent="1">
          <mxGeometry x="630" y="752.5" width="60" height="30" as="geometry" />
        </mxCell>
        <mxCell id="EQCuyr0gUEPZYGNhDmS0-53" value="No" style="text;html=1;strokeColor=none;fillColor=none;align=center;verticalAlign=middle;whiteSpace=wrap;rounded=0;fontSize=14;" vertex="1" parent="1">
          <mxGeometry x="430" y="752.5" width="60" height="30" as="geometry" />
        </mxCell>
        <mxCell id="EQCuyr0gUEPZYGNhDmS0-56" value="" style="endArrow=classic;html=1;rounded=0;fontSize=14;exitX=0.5;exitY=1;exitDx=0;exitDy=0;exitPerimeter=0;entryX=0.5;entryY=0;entryDx=0;entryDy=0;" edge="1" parent="1" source="EQCuyr0gUEPZYGNhDmS0-37" target="EQCuyr0gUEPZYGNhDmS0-46">
          <mxGeometry width="50" height="50" relative="1" as="geometry">
            <mxPoint x="580" y="900" as="sourcePoint" />
            <mxPoint x="630" y="850" as="targetPoint" />
          </mxGeometry>
        </mxCell>
        <mxCell id="EQCuyr0gUEPZYGNhDmS0-57" value="" style="shape=parallelogram;perimeter=parallelogramPerimeter;whiteSpace=wrap;html=1;fixedSize=1;fontSize=14;strokeWidth=2;fillColor=none;" vertex="1" parent="1">
          <mxGeometry x="672.5" y="895" width="165" height="85" as="geometry" />
        </mxCell>
        <mxCell id="EQCuyr0gUEPZYGNhDmS0-58" value="Output the student is allowed to choose the major by her/himself" style="text;html=1;strokeColor=none;fillColor=none;align=center;verticalAlign=middle;whiteSpace=wrap;rounded=0;fontSize=14;" vertex="1" parent="1">
          <mxGeometry x="690" y="902.5" width="130" height="70" as="geometry" />
        </mxCell>
        <mxCell id="EQCuyr0gUEPZYGNhDmS0-59" value="" style="endArrow=classic;html=1;rounded=0;fontSize=14;exitX=0.5;exitY=1;exitDx=0;exitDy=0;exitPerimeter=0;entryX=0.5;entryY=0;entryDx=0;entryDy=0;" edge="1" parent="1" source="EQCuyr0gUEPZYGNhDmS0-49" target="EQCuyr0gUEPZYGNhDmS0-57">
          <mxGeometry width="50" height="50" relative="1" as="geometry">
            <mxPoint x="580" y="930" as="sourcePoint" />
            <mxPoint x="630" y="880" as="targetPoint" />
          </mxGeometry>
        </mxCell>
        <mxCell id="EQCuyr0gUEPZYGNhDmS0-60" value="Yes" style="text;html=1;strokeColor=none;fillColor=none;align=center;verticalAlign=middle;whiteSpace=wrap;rounded=0;fontSize=14;" vertex="1" parent="1">
          <mxGeometry x="570" y="865" width="35" height="30" as="geometry" />
        </mxCell>
        <mxCell id="EQCuyr0gUEPZYGNhDmS0-61" value="Yes" style="text;html=1;strokeColor=none;fillColor=none;align=center;verticalAlign=middle;whiteSpace=wrap;rounded=0;fontSize=14;" vertex="1" parent="1">
          <mxGeometry x="760" y="865" width="35" height="30" as="geometry" />
        </mxCell>
        <mxCell id="EQCuyr0gUEPZYGNhDmS0-62" value="" style="endArrow=classic;html=1;rounded=0;fontSize=14;exitX=0.5;exitY=1;exitDx=0;exitDy=0;entryX=1;entryY=0.5;entryDx=0;entryDy=0;entryPerimeter=0;" edge="1" parent="1" source="EQCuyr0gUEPZYGNhDmS0-57" target="EQCuyr0gUEPZYGNhDmS0-33">
          <mxGeometry width="50" height="50" relative="1" as="geometry">
            <mxPoint x="580" y="930" as="sourcePoint" />
            <mxPoint x="630" y="880" as="targetPoint" />
            <Array as="points">
              <mxPoint x="755" y="1030" />
            </Array>
          </mxGeometry>
        </mxCell>
      </root>
    </mxGraphModel>
  </diagram>
</mxfile>
